<svg viewBox="0 0 32 32" xmlns="http://www.w3.org/2000/svg">
  <!-- Beaker body -->
  <path d="M10 4 L10 12 L6 26 C5.5 28 7 30 9 30 L23 30 C25 30 26.5 28 26 26 L22 12 L22 4" 
        fill="none" 
        stroke="#3B82F6" 
        stroke-width="2" 
        stroke-linecap="round" 
        stroke-linejoin="round"/>
  
  <!-- Beaker rim -->
  <path d="M8 4 L24 4" 
        stroke="#3B82F6" 
        stroke-width="2" 
        stroke-linecap="round"/>
  
  <!-- Liquid in beaker -->
  <path d="M8 20 L10 14 L22 14 L24 20 Q22 18 16 19 Q10 20 8 20 Z" 
        fill="#10B981" 
        opacity="0.8"/>
  <path d="M7 24 L8 20 Q12 22 16 21 Q20 20 24 22 L25 26 C25.3 27.5 24 28 23 28 L9 28 C8 28 6.7 27.5 7 26 Z" 
        fill="#10B981" 
        opacity="0.9"/>
  
  <!-- Bubbles -->
  <circle cx="12" cy="22" r="1.5" fill="#34D399" opacity="0.9"/>
  <circle cx="18" cy="24" r="1" fill="#34D399" opacity="0.8"/>
  <circle cx="15" cy="18" r="1" fill="#34D399" opacity="0.7"/>
  <circle cx="20" cy="20" r="0.8" fill="#34D399" opacity="0.6"/>
  
  <!-- Measurement lines -->
  <line x1="9" y1="10" x2="11" y2="10" stroke="#3B82F6" stroke-width="1" opacity="0.6"/>
  <line x1="8.5" y1="14" x2="10.5" y2="14" stroke="#3B82F6" stroke-width="1" opacity="0.6"/>
</svg>
