<svg width="81" height="80" viewBox="0 0 81 80" fill="none" xmlns="http://www.w3.org/2000/svg">
<g clip-path="url(#clip0_1_39)">
<path d="M62.1974 4.83627L52.8516 20.9401H30.8383L19.808 40.0358L30.8383 59.1316H52.8559L62.1961 75.2254L62.1935 75.23H34.4312C29.7304 75.23 27.38 75.23 25.2759 74.5466C23.4144 73.9421 21.7006 72.953 20.2458 71.6439C18.6017 70.1642 17.4265 68.1297 15.0761 64.0606L7.64679 51.1989C5.29641 47.1299 4.12124 45.0955 3.66127 42.9325C3.25427 41.0186 3.25427 39.0408 3.66126 37.1269C4.12123 34.964 5.29641 32.9295 7.64678 28.8605L15.0761 15.9986C17.4265 11.9296 18.6017 9.8951 20.2458 8.41546C21.7006 7.10625 23.4144 6.11729 25.2759 5.51268C27.3802 4.82935 29.7304 4.82935 34.4313 4.82935H62.1935L62.1974 4.83627Z" fill="black"/>
<path d="M80.8302 4.82935L59.5071 40.9926H59.5009L50.9602 55.7784H32.7748L23.6822 40.0371L23.7102 39.9886H36.6942L41.0871 47.5933L44.8999 40.9926H44.8934L45.2741 40.3443L45.4797 39.9886H45.4832L66.1415 4.82935H80.8302Z" fill="#8046FF"/>
<path d="M47.5272 55.7786H32.7733L23.6541 39.9888H38.247L42.6399 47.5935L47.5272 55.7786Z" fill="#FE8742"/>
</g>
<defs>
<clipPath id="clip0_1_39">
<rect width="80" height="70.5454" fill="white" transform="translate(0.901306 4.72437)"/>
</clipPath>
</defs>
</svg>
