<svg xmlns="http://www.w3.org/2000/svg" viewBox="0 0 120 120" width="120" height="120">
  <defs>
    <linearGradient id="waveGrad" x1="0%" y1="0%" x2="100%" y2="0%">
      <stop offset="0%" style="stop-color:#7C3AED"/>
      <stop offset="50%" style="stop-color:#6366F1"/>
      <stop offset="100%" style="stop-color:#38BDF8"/>
    </linearGradient>
  </defs>

  <!-- White background circle -->
  <circle cx="60" cy="60" r="56" fill="#FFFFFF"/>

  <!-- Gamma wave -->
  <path d="M 16 60
    Q 19 38, 22 60 Q 25 82, 28 60
    Q 30.5 42, 33 60 Q 35.5 78, 38 60
    Q 40 44, 42 60 Q 44 76, 46 60
    Q 47.5 43, 49 60 Q 50.5 77, 52 60
    Q 53.5 45, 55 60 Q 56.5 75, 58 60
    Q 59.5 46, 61 60 Q 62.5 74, 64 60
    Q 65.5 43, 67 60 Q 68.5 77, 70 60
    Q 71.5 44, 73 60 Q 74.5 76, 76 60
    Q 78 42, 80 60 Q 82 78, 84 60
    Q 86 40, 88 60 Q 90 80, 92 60
    Q 94.5 44, 97 60 Q 99.5 76, 102 60"
    fill="none" stroke="url(#waveGrad)" stroke-width="2.5" stroke-linecap="round"/>
</svg>